<?xml version="1.0" standalone="no"?>
<!DOCTYPE svg PUBLIC "-//W3C//DTD SVG 20010904//EN"
 "http://www.w3.org/TR/2001/REC-SVG-20010904/DTD/svg10.dtd">
<svg version="1.0" xmlns="http://www.w3.org/2000/svg"
 width="700.000000pt" height="700.000000pt" viewBox="0 0 700.000000 700.000000"
 preserveAspectRatio="xMidYMid meet">
<metadata>
Created by potrace 1.11, written by Peter Selinger 2001-2013
</metadata>
<g transform="translate(0.000000,700.000000) scale(0.100000,-0.100000)"
fill="#000000" stroke="none">
<path d="M408 6800 c-127 -39 -230 -149 -254 -270 -8 -43 -9 -660 -1 -715 19
-133 142 -262 277 -291 66 -15 441 -12 495 4 128 36 220 126 260 256 l13 41
12 -32 c6 -18 16 -33 20 -33 12 0 223 89 232 98 4 4 -24 68 -61 142 -63 127
-105 195 -173 282 -28 35 -30 45 -33 135 -3 111 -9 140 -41 203 -41 83 -107
139 -208 177 -62 24 -464 26 -538 3z"/>
<path d="M6141 6803 c-107 -27 -191 -98 -240 -202 l-26 -56 -3 -358 c-4 -398
-1 -422 60 -513 40 -60 116 -118 183 -141 74 -26 476 -25 551 0 114 39 200
126 235 238 17 54 19 94 18 396 0 294 -3 343 -18 394 -35 110 -107 186 -221
234 -39 16 -76 19 -266 20 -157 1 -236 -2 -273 -12z"/>
<path d="M4328 6445 c-2 -2 -43 -6 -92 -9 -49 -4 -92 -9 -95 -11 -3 -1 -23 -6
-43 -9 -266 -42 -562 -179 -794 -367 -368 -298 -591 -711 -649 -1199 -6 -48
-6 -282 0 -340 8 -87 17 -148 25 -180 5 -19 12 -51 15 -70 12 -70 86 -273 136
-373 104 -206 258 -407 426 -552 43 -38 79 -71 81 -74 1 -4 -16 -47 -37 -96
-22 -49 -39 -90 -38 -91 5 -5 227 -94 235 -94 4 0 19 26 32 58 12 31 27 61 31
66 5 6 49 -10 106 -36 133 -63 287 -114 403 -134 14 -2 48 -9 75 -14 201 -38
501 -23 723 36 420 112 794 377 1027 729 21 30 38 55 40 55 1 0 21 -18 43 -40
53 -50 126 -87 194 -98 84 -12 437 -7 483 7 105 34 179 99 228 201 l32 65 2
350 c3 388 0 417 -57 506 -52 80 -133 136 -227 157 -23 5 -134 9 -247 8 -131
-1 -206 3 -206 9 -3 68 -59 289 -101 399 -227 595 -757 1023 -1384 1120 -16 3
-50 8 -75 12 -41 6 -287 13 -292 9z"/>
<path d="M1612 5069 c-97 -32 -122 -43 -118 -55 24 -63 146 -495 218 -774 27
-107 52 -198 54 -202 4 -5 31 0 149 28 11 3 25 6 30 8 6 1 25 6 43 10 26 6 32
12 27 27 -3 10 -7 28 -10 38 -3 11 -8 28 -10 38 -2 10 -15 63 -30 118 -14 55
-40 152 -56 215 -29 109 -88 320 -108 385 -5 17 -21 69 -36 118 -15 48 -28 87
-28 86 -1 0 -58 -19 -125 -40z"/>
<path d="M416 4883 c-33 -7 -67 -20 -76 -28 -9 -8 -21 -15 -27 -15 -5 0 -33
-24 -61 -53 -51 -55 -86 -118 -98 -178 -7 -34 -8 -691 -1 -719 27 -118 92
-202 197 -255 68 -34 123 -41 345 -40 222 2 268 10 347 67 50 37 69 58 104
115 47 78 51 113 50 488 l-1 350 -32 67 c-53 112 -147 186 -261 207 -76 15
-419 10 -486 -6z"/>
<path d="M2056 3294 c-65 -13 -120 -25 -122 -26 -1 -2 9 -62 22 -133 32 -163
96 -522 110 -610 2 -16 7 -43 11 -60 3 -16 7 -39 9 -50 15 -95 29 -161 35
-165 5 -3 62 3 129 14 92 16 120 24 120 36 0 8 -12 78 -25 155 -14 77 -28 156
-30 175 -3 19 -8 46 -11 60 -7 28 -7 30 -28 155 -9 50 -18 101 -21 115 -3 14
-9 50 -15 80 -6 30 -12 64 -14 75 -2 11 -12 62 -22 113 -9 50 -20 91 -23 91
-3 -1 -59 -12 -125 -25z"/>
<path d="M419 3023 c-134 -34 -240 -146 -265 -280 -9 -48 -11 -610 -2 -687 16
-147 120 -268 263 -306 86 -23 469 -20 535 4 101 37 165 96 213 196 l31 65 2
345 c1 362 -3 407 -44 487 -41 79 -136 154 -227 178 -55 15 -447 13 -506 -2z"/>
<path d="M6148 3025 c-112 -29 -198 -99 -246 -203 l-27 -57 -2 -370 -3 -370
25 -59 c36 -88 89 -144 178 -190 l76 -39 203 -3 c112 -1 230 2 262 8 141 23
254 125 290 261 21 78 21 697 0 770 -35 120 -137 219 -259 252 -47 13 -447 13
-497 0z"/>
<path d="M2996 2293 c-11 -34 -116 -458 -122 -488 -3 -16 -18 -88 -34 -160
-54 -235 -78 -350 -75 -353 6 -6 246 -54 250 -50 4 4 63 264 81 358 13 68 79
342 114 477 22 83 40 156 40 161 0 9 -204 72 -234 72 -8 0 -17 -8 -20 -17z"/>
<path d="M2385 1494 c-38 -8 -83 -15 -99 -16 -15 -1 -30 -8 -33 -15 -3 -7 7
-81 21 -165 14 -84 28 -171 31 -193 4 -22 15 -94 26 -160 11 -66 22 -131 24
-145 1 -14 6 -41 9 -60 3 -19 8 -46 10 -60 27 -180 41 -240 56 -239 8 0 48 6
88 13 79 14 77 16 62 -49 -13 -58 -20 -95 -27 -136 -5 -33 -3 -37 22 -43 28
-7 215 -46 221 -46 5 0 22 67 30 114 6 38 10 59 18 94 3 9 8 31 11 48 8 34 9
33 -75 49 -95 18 -108 23 -114 43 -3 9 -17 89 -31 177 -14 88 -28 174 -31 190
-3 17 -7 41 -9 55 -2 14 -11 66 -19 115 -9 50 -18 108 -21 130 -4 22 -8 51
-11 65 -6 33 -25 157 -30 195 -8 62 -10 63 -129 39z"/>
<path d="M440 1112 c-52 -9 -147 -61 -188 -103 -50 -52 -89 -126 -98 -189 -8
-53 -9 -673 -1 -710 3 -14 13 -44 22 -67 l17 -43 480 0 479 0 15 37 c9 20 18
46 21 57 9 33 10 687 2 732 -21 110 -97 205 -207 257 l-67 32 -225 1 c-124 0
-236 -1 -250 -4z"/>
<path d="M6128 1100 c-103 -32 -171 -90 -225 -192 l-28 -53 0 -380 c0 -349 2
-384 19 -428 l19 -47 479 0 479 0 22 48 c21 45 22 60 24 402 1 327 0 360 -18
415 -25 77 -62 130 -124 177 -86 65 -121 72 -370 74 -185 2 -229 -1 -277 -16z"/>
</g>
</svg>
