<svg xmlns:xlink="http://www.w3.org/1999/xlink" xmlns="http://www.w3.org/2000/svg" version="1.1" viewBox="0 0 642.5197143554688 642.5197143554688" fill="none" stroke="none" stroke-linecap="square" stroke-miterlimit="10" width="100%" height="100%"  preserveAspectRatio="xMinYMin meet"><rect id="svgEditorBackground" x="0" y="0" width="642.5197143554688" height="642.5197143554688" style="fill: none; stroke: none;"/><clipPath id="p.0"><path d="m0 0l642.5197 0l0 642.5197l-642.5197 0l0 -642.5197z" clip-rule="nonzero"/></clipPath><g clip-path="url(#p.0)"><path fill="#000000" fill-opacity="0.0" d="m0,0l642.5197,0l0,642.5197l-642.5197,0Z" fill-rule="evenodd"/><path fill="#ffffff" d="m465.28348 60.294025l0 0c0 -1.698925 1.3772278 -3.0761795 3.0761719 -3.0761795l12.304321 0l0 0c0.81585693 0 1.5982971 0.32409668 2.1752014 0.90099335c0.5768738 0.57689667 0.90097046 1.359333 0.90097046 2.1751862l0 16.367329c0 1.6989288 -1.3772278 3.0761795 -3.0761719 3.0761795l-12.304321 0c-1.6989441 0 -3.0761719 -1.3772507 -3.0761719 -3.0761795z" fill-rule="evenodd" transform="matrix(1.7113 0 0 1.7113 -224.031 -28.9333)"/><path fill="#000000" fill-opacity="0.0" d="m62.889614 37.519684c9.488026 10.554131 37.33885 19.74791 56.928127 63.324776c19.589272 43.576866 41.018257 110.983635 60.607536 198.13641c19.58928 87.15277 47.44011 270.65018 56.92813 324.78024" fill-rule="evenodd"/><path stroke="#434343" stroke-width="24.0" stroke-linejoin="round" stroke-linecap="butt" stroke-dasharray="96.0,72.0" d="m62.889614 37.519684c9.488026 10.554131 37.33885 19.74791 56.928127 63.324776c19.589272 43.576866 41.018257 110.983635 60.607536 198.13641c19.58928 87.15277 47.44011 270.65018 56.92813 324.78024" fill-rule="evenodd"/><path fill="#000000" fill-opacity="0.0" d="m368.17847 291.71393c-6.6797485 5.9776 -26.287262 11.184753 -40.07852 35.865692c-13.791229 24.68097 -28.877655 62.858643 -42.668884 112.22c-13.791229 49.36136 -33.398758 153.29016 -40.07852 183.94818" fill-rule="evenodd"/><path stroke="#434343" stroke-width="24.0" stroke-linejoin="round" stroke-linecap="butt" stroke-dasharray="96.0,72.0" d="m368.17847 291.71393c-6.6797485 5.9776 -26.287262 11.184753 -40.07852 35.865692c-13.791229 24.68097 -28.877655 62.858643 -42.668884 112.22c-13.791229 49.36136 -33.398758 153.29016 -40.07852 183.94818" fill-rule="evenodd"/><path fill="#073763" d="m538.6667 50.143578l0 0c0 -18.367023 14.889404 -33.25644 33.25641 -33.25644l29.896606 0l0 0c8.820129 0 17.279053 3.5037937 23.515808 9.740587c6.2368164 6.2367916 9.740601 14.695696 9.740601 23.515852l0 52.983185c0 18.367027 -14.889404 33.256447 -33.25641 33.256447l-29.896606 0c-18.367004 0 -33.25641 -14.88942 -33.25641 -33.256447z" fill-rule="evenodd"/><path fill="#073763" d="m538.6667 226.23451l0 0c0 -18.367035 14.889404 -33.25644 33.25641 -33.25644l29.896606 0l0 0c8.820129 0 17.279053 3.5037842 23.515808 9.740585c6.2368164 6.236786 9.740601 14.695694 9.740601 23.515854l0 52.98317c0 18.367035 -14.889404 33.25644 -33.25641 33.25644l-29.896606 0c-18.367004 0 -33.25641 -14.889404 -33.25641 -33.25644z" fill-rule="evenodd"/><path fill="#073763" d="m538.6667 397.08542l0 0c0 -18.367035 14.889404 -33.25644 33.25641 -33.25644l29.896606 0l0 0c8.820129 0 17.279053 3.5037842 23.515808 9.74057c6.2368164 6.236786 9.740601 14.695709 9.740601 23.51587l0 52.983185c0 18.367004 -14.889404 33.25644 -33.25641 33.25644l-29.896606 0c-18.367004 0 -33.25641 -14.889435 -33.25641 -33.25644z" fill-rule="evenodd"/><path fill="#073763" d="m538.6667 573.17633l0 0c0 -18.367004 14.889404 -33.25641 33.25641 -33.25641l29.896606 0l0 0c8.820129 0 17.279053 3.5037842 23.515808 9.74054c6.2368164 6.2368164 9.740601 14.69574 9.740601 23.51587l0 52.983215c0 18.367004 -14.889404 33.25641 -33.25641 33.25641l-29.896606 0c-18.367004 0 -33.25641 -14.889404 -33.25641 -33.25641z" fill-rule="evenodd"/><path fill="#073763" d="m13.448819 50.142265l0 0c0 -18.367023 14.889415 -33.25644 33.25644 -33.25644l29.896572 0l0 0c8.820152 0 17.27906 3.5037937 23.515854 9.740585c6.2367935 6.2367935 9.740585 14.695698 9.740585 23.515854l0 52.983185c0 18.367027 -14.88942 33.256447 -33.25644 33.256447l-29.896572 0c-18.367023 0 -33.25644 -14.88942 -33.25644 -33.256447z" fill-rule="evenodd"/><path fill="#073763" d="m13.448819 226.2332l0 0c0 -18.367035 14.889415 -33.25644 33.25644 -33.25644l29.896572 0l0 0c8.820152 0 17.27906 3.5037842 23.515854 9.740585c6.2367935 6.236786 9.740585 14.695694 9.740585 23.515854l0 52.98317c0 18.367035 -14.88942 33.25644 -33.25644 33.25644l-29.896572 0c-18.367023 0 -33.25644 -14.889404 -33.25644 -33.25644z" fill-rule="evenodd"/><path fill="#073763" d="m13.448819 397.0841l0 0c0 -18.367035 14.889415 -33.25644 33.25644 -33.25644l29.896572 0l0 0c8.820152 0 17.27906 3.5037842 23.515854 9.74057c6.2367935 6.236786 9.740585 14.695709 9.740585 23.51587l0 52.983185c0 18.367004 -14.88942 33.25644 -33.25644 33.25644l-29.896572 0c-18.367023 0 -33.25644 -14.889435 -33.25644 -33.25644z" fill-rule="evenodd"/><path fill="#073763" d="m13.448819 573.17505l0 0c0 -18.367065 14.889415 -33.25647 33.25644 -33.25647l29.896572 0l0 0c8.820152 0 17.27906 3.5037842 23.515854 9.740601c6.2367935 6.2367554 9.740585 14.695679 9.740585 23.51587l0 52.983154c0 18.367004 -14.88942 33.25647 -33.25644 33.25647l-29.896572 0c-18.367023 0 -33.25644 -14.889465 -33.25644 -33.25647z" fill-rule="evenodd"/></g><g id="g_e4_svg" transform="matrix(1.7113 0 0 1.7113 -224.031 -28.9333)"><svg xmlns="http://www.w3.org/2000/svg" xmlns:xlink="http://www.w3.org/1999/xlink" width="214.476" height="214.476" viewBox="0 0 48 48" preserveAspectRatio="xMidYMid meet" id="e4_svg" x="260.825" y="34.534">
<style type="text/css">
	.st0{opacity:0.15;fill:#45413C;}
	.st1{fill:#DAEDF7;stroke:#45413C;stroke-linecap:round;stroke-linejoin:round;stroke-miterlimit:10;}
	.st2{fill:#656769;}
	.st3{fill:#87898C;}
	.st4{fill:none;stroke:#45413C;stroke-linecap:round;stroke-linejoin:round;stroke-miterlimit:10;}
	.st5{fill:#DAEDF7;}
	.st6{fill:#E8F4FA;}
	.st7{fill:#FFFFFF;}
	.st8{fill:#E0E0E0;}
	.st9{fill:#00B8F0;}
	.st10{fill:#FF6242;stroke:#45413C;stroke-linecap:round;stroke-linejoin:round;stroke-miterlimit:10;}
	.st11{fill:#FFE500;stroke:#45413C;stroke-linecap:round;stroke-linejoin:round;stroke-miterlimit:10;}
	.st12{fill:#00DBA8;stroke:#45413C;stroke-linecap:round;stroke-linejoin:round;stroke-miterlimit:10;}
	.st13{fill:#BF8DF2;stroke:#45413C;stroke-linecap:round;stroke-linejoin:round;stroke-miterlimit:10;}
	.st14{fill:#00B8F0;stroke:#45413C;stroke-linecap:round;stroke-linejoin:round;stroke-miterlimit:10;}
	.st15{fill:#87898C;stroke:#45413C;stroke-linecap:round;stroke-linejoin:round;stroke-miterlimit:10;}
	.st16{fill:#FF6242;}
	.st17{fill:#E04122;}
	.st18{fill:#9CEB60;}
	.st19{fill:#6DD627;}
	.st20{fill:#FF866E;}
	.st21{fill:#F0F0F0;}
	.st22{fill:#009FD9;}
	.st23{fill:#656769;stroke:#45413C;stroke-linecap:round;stroke-linejoin:round;stroke-miterlimit:10;}
	.st24{fill:#ADC4D9;}
	.st25{fill:#8CA4B8;}
	.st26{fill:#BDBEC0;}
	.st27{fill:#C0DCEB;stroke:#45413C;stroke-linecap:round;stroke-linejoin:round;stroke-miterlimit:10;}
	.st28{fill:#4ACFFF;}
	.st29{fill:#FFFFFF;stroke:#45413C;stroke-linecap:round;stroke-linejoin:round;stroke-miterlimit:10;}
	.st30{fill:#C0DCEB;}
	.st31{fill:#FFAA54;stroke:#45413C;stroke-linecap:round;stroke-linejoin:round;stroke-miterlimit:10;}
	.st32{fill:#FF8A14;}
	.st33{fill:#FFAA54;}
	.st34{fill:#6DD627;stroke:#45413C;stroke-linecap:round;stroke-linejoin:round;stroke-miterlimit:10;}
	.st35{fill:#DEBB7E;}
	.st36{fill:#F0D5A8;}
	.st37{fill:none;stroke:#45413C;stroke-miterlimit:10;}
	.st38{fill:#FFE500;}
	.st39{fill:#FFF48C;}
	.st40{fill:#FFF48C;stroke:#45413C;stroke-linecap:round;stroke-linejoin:round;stroke-miterlimit:10;}
	.st41{fill:#FF8A14;stroke:#45413C;stroke-linecap:round;stroke-linejoin:round;stroke-miterlimit:10;}
	.st42{fill:#525252;}
	.st43{fill:#00F5BC;}
	.st44{fill:#8CFFE4;}
	.st45{fill:#00DBA8;}
	.st46{fill:#EBCB00;}
	.st47{fill:#FF866E;stroke:#45413C;stroke-linecap:round;stroke-linejoin:round;stroke-miterlimit:10;}
	.st48{fill:#FFCC99;}
	.st49{fill:#45413C;stroke:#45413C;stroke-linecap:round;stroke-linejoin:round;stroke-miterlimit:10;}
	.st50{fill:#C8FFA1;}
	.st51{fill:#BDBEC0;stroke:#45413C;stroke-linecap:round;stroke-linejoin:round;stroke-miterlimit:10;}
	.st52{fill:#80DDFF;}
	.st53{fill:#4ACFFF;stroke:#45413C;stroke-linecap:round;stroke-linejoin:round;stroke-miterlimit:10;}
	.st54{fill:#FFFCE5;}
	.st55{fill:#FFFACF;}
	.st56{fill:#627B8C;}
	.st57{fill:#BF8256;}
	.st58{fill:#DEA47A;}
	.st59{fill:#BF8256;stroke:#45413C;stroke-linecap:round;stroke-linejoin:round;stroke-miterlimit:10;}
	.st60{fill:#DEBB7E;stroke:#45413C;stroke-linecap:round;stroke-linejoin:round;stroke-miterlimit:10;}
	.st61{fill:#B89558;}
	.st62{fill:#B8ECFF;}
	.st63{fill:#F7E5C6;}
	.st64{fill:#FFF5E3;}
	.st65{fill:#915E3A;}
	.st66{fill:#45413C;stroke:#45413C;stroke-miterlimit:10;}
	.st67{fill:#FFB0CA;stroke:#45413C;stroke-linecap:round;stroke-linejoin:round;stroke-miterlimit:10;}
	.st68{fill:#FF87AF;stroke:#45413C;stroke-linecap:round;stroke-linejoin:round;stroke-miterlimit:10;}
	.st69{fill:#E5FEFF;}
	.st70{fill:#A6FBFF;}
	.st71{fill:#FFB0CA;}
	.st72{fill:#FF87AF;}
	.st73{fill:none;stroke:#45413C;stroke-linecap:round;stroke-miterlimit:10;}
	.st74{fill:#BF8DF2;}
	.st75{fill:#DABFF5;}
	.st76{fill:#4AEFF7;}
	.st77{fill:#00DFEB;}
	.st78{fill:#FFCEBF;}
	.st79{fill:#FF6196;stroke:#45413C;stroke-linecap:round;stroke-linejoin:round;stroke-miterlimit:10;}
	.st80{fill:#00DFEB;stroke:#45413C;stroke-linecap:round;stroke-linejoin:round;stroke-miterlimit:10;}
	.st81{fill:#FF6196;}
	.st82{fill:#EBCB00;stroke:#45413C;stroke-linecap:round;stroke-linejoin:round;stroke-miterlimit:10;}
	.st83{fill:#00F5BC;stroke:#45413C;stroke-linecap:round;stroke-linejoin:round;stroke-miterlimit:10;}
	.st84{fill:#4AEFF7;stroke:#45413C;stroke-linecap:round;stroke-linejoin:round;stroke-miterlimit:10;}
	.st85{fill:#46B000;}
	.st86{fill:#E0366F;}
	.st87{fill:#E0366F;stroke:#45413C;stroke-linecap:round;stroke-linejoin:round;stroke-miterlimit:10;}
	.st88{fill:none;stroke:#E04122;stroke-linecap:round;stroke-linejoin:round;stroke-miterlimit:10;}
	.st89{fill:#FFA694;}
	.st90{fill:#EDDBFF;stroke:#45413C;stroke-linecap:round;stroke-linejoin:round;stroke-miterlimit:10;}
	.st91{fill:none;stroke:#BF8DF2;stroke-linecap:round;stroke-linejoin:round;stroke-miterlimit:10;}
	.st92{fill:#EDDBFF;}
	.st93{fill:#DABFF5;stroke:#45413C;stroke-linecap:round;stroke-linejoin:round;stroke-miterlimit:10;}
	.st94{fill:#E04122;stroke:#45413C;stroke-linecap:round;stroke-linejoin:round;stroke-miterlimit:10;}
	.st95{fill:#EB6D00;}
	.st96{fill:none;stroke:#45413C;stroke-width:1.0064;stroke-linecap:round;stroke-linejoin:round;stroke-miterlimit:10;}
	.st97{fill:#915E3A;stroke:#45413C;stroke-linecap:round;stroke-linejoin:round;stroke-miterlimit:10;}
	.st98{fill:#E0E0E0;stroke:#45413C;stroke-linecap:round;stroke-linejoin:round;stroke-miterlimit:10;}
	.st99{fill:#F0F0F0;stroke:#45413C;stroke-linecap:round;stroke-linejoin:round;stroke-miterlimit:10;}
	.st100{fill:#46B000;stroke:#45413C;stroke-linecap:round;stroke-linejoin:round;stroke-miterlimit:10;}
	.st101{fill:#4F4B45;}
	.st102{fill:#FFDCD1;}
	.st103{fill:#8CA4B8;stroke:#45413C;stroke-linecap:round;stroke-linejoin:round;stroke-miterlimit:10;}
	.st104{fill:#E8F4FA;stroke:#45413C;stroke-linecap:round;stroke-linejoin:round;stroke-miterlimit:10;}
	.st105{fill:none;stroke:#48CF3E;stroke-linecap:round;stroke-linejoin:round;stroke-miterlimit:10;}
	.st106{fill:none;stroke:#FF4064;stroke-linecap:round;stroke-linejoin:round;stroke-miterlimit:10;}
	.st107{fill:none;stroke:#FFB700;stroke-linecap:round;stroke-linejoin:round;stroke-miterlimit:10;}
	.st108{fill:none;stroke:#00AED9;stroke-linecap:round;stroke-linejoin:round;stroke-miterlimit:10;}
	.st109{fill:#C0DCEB;stroke:#45413C;stroke-miterlimit:10;}
	.st110{fill:#525252;stroke:#45413C;stroke-linecap:round;stroke-linejoin:round;stroke-miterlimit:10;}
	.st111{fill:#FFF5E3;stroke:#45413C;stroke-linecap:round;stroke-linejoin:round;stroke-miterlimit:10;}
	.st112{fill:#FFFFFF;stroke:#45413C;stroke-linejoin:round;stroke-miterlimit:10;}
	.st113{fill:#F0C2A1;}
	.st114{fill:#DEA47A;stroke:#45413C;stroke-linecap:round;stroke-linejoin:round;stroke-miterlimit:10;}
	.st115{fill:#F0C2A1;stroke:#45413C;stroke-linecap:round;stroke-linejoin:round;stroke-miterlimit:10;}
	.st116{fill:#FFFEF2;}
	.st117{fill:#9CEB60;stroke:#45413C;stroke-linecap:round;stroke-linejoin:round;stroke-miterlimit:10;}
	.st118{fill:#9F5AE5;stroke:#45413C;stroke-linecap:round;stroke-linejoin:round;stroke-miterlimit:10;}
	.st119{fill:#627B8C;stroke:#45413C;stroke-linecap:round;stroke-linejoin:round;stroke-miterlimit:10;}
	.st120{fill:#FFFACF;stroke:#45413C;stroke-linecap:round;stroke-linejoin:round;stroke-miterlimit:10;}
</style>
<g id="XMLID_16455_">
	
	<circle id="XMLID_16462_" class="st32" cx="24" cy="24" r="20.8"/>
	<path id="XMLID_16461_" class="st95" d="M41.8,13.3c0.7,1.9,1.1,4,1.1,6.2c0,10.4,-8.4,18.9,-18.9,18.9S5.1,29.9,5.1,19.5c0,-2.2,0.4,-4.2,1.1,-6.2c-1.9,3.1,-3,6.8,-3,10.7c0,11.5,9.3,20.8,20.8,20.8c11.5,0,20.8,-9.3,20.8,-20.8C44.8,20.1,43.7,16.4,41.8,13.3Z" style="stroke:none;"/>
	<circle id="XMLID_16460_" class="st4" cx="24" cy="24" r="20.8"/>
	<path id="XMLID_16459_" class="st4" d="M44.8,22.6c-3.6-5.5-17-7.5-32.1-4.4c-4.2,0.9-7.9,3.3-9.5,5.4"/>
	<path id="XMLID_16458_" class="st4" d="M18,4.1c-2.8,4.6-4.2,11.6-3.4,19.4c1,10.3,5.5,18.7,10.9,21.3"/>
	<path id="XMLID_16457_" class="st4" d="M4.9,32.2c1-3.8,3.6-7.7,9.7-8.8C25,21.6,32,31.7,40.3,36.9"/>
	<path id="XMLID_16456_" class="st4" d="M31,4.4c-4.8,3.8-10.3,7.8-16,9c-4.5,0.9-6.3-0.9-7-2.7"/>
</g>
</svg></g></svg>